# xmcd
#
# Track frame offsets: 
#        150
#        18758
#        40253
#        63698
#        84443
#        101401
#        121021
#        138804
#        156699
#        180032
#        197365
#        222348
#
# Disc length: 3281 seconds
#
# Revision: 0
# Processed by: cddbd v1.5.2PL0 Copyright (c) Steve Scherf et al.
# Submitted via: ExactAudioCopy v0.99pb3
#
DISCID=930ccf0c
DTITLE=Simply Red - Stay Live at the RAH Disc 1
DYEAR=2007
DGENRE=Rock
TTITLE0=Soul Theme
TTITLE1=The World and You Tonight
TTITLE2=So Beautiful
TTITLE3=For Your Babies
TTITLE4=The Death Of The Cool
TTITLE5=So Not Over You
TTITLE6=They Don t Know
TTITLE7=Night Nurse
TTITLE8=Lady
TTITLE9=Stay
TTITLE10=Holding Back The Years
TTITLE11=Debris
EXTD=
EXTT0=
EXTT1=
EXTT2=
EXTT3=
EXTT4=
EXTT5=
EXTT6=
EXTT7=
EXTT8=
EXTT9=
EXTT10=
EXTT11=
PLAYORDER=
